<?xml version="1.0" standalone="no"?>
<!DOCTYPE svg PUBLIC "-//W3C//DTD SVG 20010904//EN"
 "http://www.w3.org/TR/2001/REC-SVG-20010904/DTD/svg10.dtd">
<svg version="1.0" xmlns="http://www.w3.org/2000/svg"
 width="512.000000pt" height="512.000000pt" viewBox="0 0 512.000000 512.000000"
 preserveAspectRatio="xMidYMid meet">
<metadata>
Created by potrace 1.11, written by Peter Selinger 2001-2013
</metadata>
<g transform="translate(0.000000,512.000000) scale(0.100000,-0.100000)"
fill="#000000" stroke="none">
<path d="M1908 4895 c-2 -1 -34 -5 -73 -9 -108 -9 -275 -36 -375 -61 -296 -74
-602 -224 -820 -399 -113 -92 -198 -181 -308 -321 -87 -111 -191 -339 -221
-485 -6 -30 -14 -66 -17 -80 -12 -52 -11 -299 1 -405 31 -258 120 -473 285
-690 31 -41 43 -71 65 -160 14 -60 44 -184 66 -275 23 -91 42 -172 44 -180 2
-8 40 -168 86 -355 45 -187 84 -352 87 -367 l4 -26 44 26 c24 15 115 71 201
125 87 54 201 125 253 158 l94 58 30 -37 c242 -298 634 -535 1071 -645 90 -23
125 -30 205 -43 14 -2 34 -6 45 -8 129 -28 557 -28 728 0 20 3 54 -9 120 -44
51 -27 155 -82 232 -122 77 -40 172 -90 210 -110 39 -21 126 -67 195 -103 69
-35 146 -76 172 -90 l48 -25 11 36 c6 21 14 51 19 67 14 51 150 526 170 597
34 116 58 198 98 338 32 115 45 144 84 195 139 183 229 391 262 608 13 85 14
289 2 352 -3 17 -10 54 -15 82 -39 203 -173 456 -339 639 -115 128 -302 275
-454 358 l-67 37 -31 101 c-67 215 -186 411 -353 581 -142 145 -211 199 -419
330 -269 170 -608 291 -933 333 -27 3 -59 8 -70 11 -22 5 -432 13 -437 8z
m-903 -1115 c56 -18 129 -55 144 -74 7 -9 18 -13 24 -9 6 3 7 1 3 -6 -4 -7 2
-15 16 -20 13 -6 19 -10 15 -10 -4 -1 4 -13 18 -28 88 -95 121 -285 75 -424
-22 -65 -71 -147 -96 -162 -8 -5 -12 -12 -9 -18 4 -5 1 -9 -5 -9 -6 0 -22 -10
-35 -23 -34 -31 -128 -77 -175 -85 -37 -7 -170 -7 -206 0 -17 3 -41 11 -53 18
-13 6 -25 9 -28 6 -3 -2 -10 -1 -17 4 -44 36 -108 80 -116 80 -6 0 -9 6 -8 13
2 6 -3 11 -10 9 -6 -1 -11 1 -10 5 3 9 -52 94 -67 105 -5 4 -6 8 -2 8 4 0 3 9
-3 21 -6 11 -13 29 -16 40 -2 10 -7 29 -10 42 -8 35 -5 137 7 194 6 29 10 56
9 59 -1 4 3 10 8 13 5 3 19 24 30 47 11 22 28 46 36 53 9 7 13 18 9 25 -3 6
-3 8 2 4 4 -4 25 11 46 32 22 22 39 37 39 34 0 -2 18 7 40 21 22 14 40 24 40
22 0 -3 24 4 53 13 61 20 190 20 252 0z m1210 -6 c58 -19 115 -51 115 -65 0
-6 -4 -8 -9 -4 -5 3 -12 1 -16 -4 -3 -6 -12 -8 -20 -4 -8 3 -15 0 -15 -6 0 -6
-3 -10 -7 -9 -13 2 -67 -14 -80 -25 -7 -5 -13 -6 -13 -2 0 4 -7 1 -17 -6 -9
-8 -18 -13 -20 -11 -6 6 -73 -22 -73 -30 0 -4 -3 -7 -7 -6 -12 4 -173 -75
-173 -84 0 -5 -4 -6 -10 -3 -5 3 -22 -5 -37 -19 -15 -14 -30 -23 -35 -20 -4 3
-8 0 -8 -6 0 -6 -4 -9 -9 -6 -5 3 -11 -1 -15 -9 -3 -8 -12 -15 -20 -15 -7 0
-17 -7 -20 -16 -3 -8 -10 -13 -14 -10 -5 3 -24 -8 -43 -25 -32 -27 -56 -39
-46 -21 3 4 8 29 11 55 8 61 31 120 67 173 32 47 95 114 107 114 4 0 17 8 28
18 67 62 258 85 379 46z m-120 -1108 c11 -2 22 -5 25 -6 3 -1 8 -2 13 -1 4 0
7 -4 7 -10 0 -5 4 -8 9 -5 5 3 14 -1 21 -9 7 -8 16 -12 21 -9 5 3 12 -2 15
-10 3 -9 9 -14 13 -13 3 2 24 -15 46 -37 22 -22 33 -37 25 -32 -8 4 -6 -1 5
-11 11 -10 32 -43 45 -73 21 -47 25 -70 25 -155 0 -88 -3 -107 -27 -158 -15
-32 -33 -64 -40 -72 -7 -8 -18 -20 -24 -27 -14 -16 -77 -72 -84 -74 -35 -10
-50 -18 -50 -27 0 -6 -3 -8 -6 -4 -3 3 -18 1 -33 -5 -38 -15 -149 -19 -201 -6
-72 17 -137 55 -189 108 -27 28 -47 50 -44 50 2 0 -5 13 -16 28 -11 16 -22 40
-25 53 -3 13 -9 38 -13 54 -9 31 -9 130 0 175 8 39 49 123 69 141 10 9 18 21
18 28 0 6 3 11 8 11 4 0 21 11 37 25 17 13 35 28 40 33 14 11 95 40 125 45 30
5 157 0 185 -7z m1018 2 c9 -1 17 -6 17 -10 0 -4 7 -8 15 -8 24 0 108 -56 144
-97 35 -39 82 -122 89 -158 7 -30 6 -156 0 -191 -3 -17 -11 -41 -17 -53 -7
-11 -8 -21 -4 -21 4 0 3 -4 -2 -8 -6 -4 -23 -26 -39 -49 -16 -24 -33 -43 -37
-43 -5 0 -9 -7 -9 -16 0 -8 -4 -13 -8 -10 -5 3 -19 -5 -33 -17 -22 -20 -70
-47 -94 -53 -70 -16 -98 -20 -145 -18 -67 3 -87 7 -142 32 -24 10 -47 21 -53
23 -5 2 -24 18 -41 36 -18 17 -34 31 -35 30 -2 -1 -3 0 -2 2 1 2 -11 21 -27
41 -16 20 -27 40 -23 44 3 3 2 6 -4 6 -5 0 -10 6 -11 13 0 6 -7 32 -15 57 -7
25 -13 73 -11 106 2 62 28 159 45 170 5 3 7 10 4 15 -4 5 -1 9 6 9 7 0 10 3 6
6 -3 3 10 21 28 39 19 18 31 36 27 40 -4 5 -2 5 5 1 6 -3 15 0 20 8 12 21 112
69 152 73 19 2 37 6 39 7 3 4 105 -1 155 -6z m1003 -1 c33 -5 114 -40 114 -49
0 -4 6 -8 13 -8 7 0 19 -9 27 -19 7 -11 17 -18 22 -15 4 3 8 0 8 -7 0 -6 11
-22 25 -35 14 -13 25 -26 25 -29 -1 -21 1 -25 9 -21 5 3 12 -1 15 -10 4 -10 2
-13 -7 -8 -9 6 -9 4 -1 -7 48 -61 50 -243 3 -325 -10 -19 -17 -34 -14 -34 3 0
-5 -12 -18 -26 -42 -50 -79 -84 -89 -84 -6 0 -8 -3 -5 -7 4 -4 -7 -13 -25 -21
-134 -59 -257 -62 -359 -11 -20 10 -40 15 -44 11 -5 -4 -5 -2 -2 4 7 11 -19
29 -36 25 -5 -1 -6 3 -2 9 3 5 1 10 -4 10 -6 0 -24 18 -40 40 -15 21 -31 37
-35 35 -3 -3 -4 -2 -1 1 2 4 -3 21 -12 38 -10 17 -18 34 -19 39 -1 4 -3 9 -4
12 -1 3 -4 10 -5 15 -1 6 -4 11 -5 13 -1 1 -3 38 -4 82 -2 79 9 134 40 188 8
15 12 27 9 27 -3 0 10 16 29 35 20 19 32 35 28 35 -4 0 8 10 26 21 17 12 32
25 32 31 0 5 4 7 9 3 5 -3 17 2 25 11 9 8 16 13 16 9 0 -3 14 2 30 10 17 9 34
14 38 12 4 -3 16 -1 27 3 18 7 111 5 161 -3z"/>
</g>
</svg>
